<?xml version="1.0" encoding="UTF-8" standalone="no"?>
<!DOCTYPE svg PUBLIC "-//W3C//DTD SVG 1.1//EN" "http://www.w3.org/Graphics/SVG/1.1/DTD/svg11.dtd">
<svg width="100%" height="100%" viewBox="0 0 600 600" version="1.1" xmlns="http://www.w3.org/2000/svg" xmlns:xlink="http://www.w3.org/1999/xlink" xml:space="preserve" xmlns:serif="http://www.serif.com/" style="fill-rule:evenodd;clip-rule:evenodd;stroke-linejoin:round;stroke-miterlimit:1.41421;">
    <g transform="matrix(5.31068,0,0,5.31068,15.8786,15.8786)">
        <g transform="matrix(2.86111,0,0,2.86111,-3.72222,-3.72222)">
            <path d="M4.769,37.5C3.518,37.5 2.5,36.481 2.5,35.23L2.5,4.77C2.5,3.519 3.518,2.5 4.769,2.5L35.231,2.5C36.482,2.5 37.5,3.519 37.5,4.77L37.5,35.23C37.5,36.481 36.482,37.5 35.231,37.5L4.769,37.5Z" style="fill:rgb(146,187,222);fill-rule:nonzero;"/>
            <path d="M35.231,3C36.206,3 37,3.794 37,4.769L37,35.231C37,36.206 36.206,37 35.231,37L4.769,37C3.794,37 3,36.206 3,35.231L3,4.769C3,3.794 3.794,3 4.769,3L35.231,3M35.231,2L4.769,2C3.24,2 2,3.24 2,4.769L2,35.231C2,36.76 3.24,38 4.769,38L35.231,38C36.76,38 38,36.76 38,35.231L38,4.769C38,3.24 36.76,2 35.231,2Z" style="fill:rgb(25,81,153);fill-rule:nonzero;"/>
        </g>
        <g transform="matrix(2.86111,0,0,2.86111,-3.72222,-3.72222)">
            <path d="M25.615,25.846C34.462,16.998 21,6 21,6L18,3L4.769,3C3.794,3 3,3.794 3,4.769L3,20L5,22C5,22 16.768,34.694 25.615,25.846Z" style="fill:rgb(92,157,213);fill-rule:nonzero;"/>
        </g>
        <g transform="matrix(0.0952919,0,0,0.0952919,76.8783,78.9112)">
            <circle cx="64" cy="64" r="64" style="fill:white;"/>
            <path d="M64,5C96.5,5 123,31.5 123,64C123,96.5 96.5,123 64,123C31.5,123 5,96.5 5,64C5,31.5 31.5,5 64,5M64,0C28.7,0 0,28.7 0,64C0,99.3 28.7,128 64,128C99.3,128 128,99.3 128,64C128,28.7 99.3,0 64,0Z" style="fill:rgb(25,81,153);fill-rule:nonzero;"/>
            <path d="M59.9,115.8L59.7,115.8C45.9,114.7 33.3,108.2 24.3,97.6C15.3,87 11,73.6 12.1,59.7C12.2,58.6 13.2,57.8 14.3,57.9C15.4,58 16.2,59 16.1,60.1C15.1,72.9 19,85.3 27.3,95.1C35.6,104.9 47.2,110.8 60,111.9C61.1,112 61.9,113 61.8,114.1C61.8,115 61,115.8 59.9,115.8Z" style="fill:rgb(25,81,153);fill-rule:nonzero;"/>
            <path d="M113.8,70.1L113.6,70.1C112.5,70 111.7,69 111.8,67.9C112.8,55.1 108.9,42.7 100.6,32.9C92.3,23.1 80.7,17.2 67.9,16.1C66.8,16 66,15 66.1,13.9C66.2,12.8 67.2,12 68.3,12.1C82.1,13.2 94.7,19.7 103.7,30.3C112.7,40.9 117,54.3 115.9,68.2C115.7,69.3 114.9,70.1 113.8,70.1Z" style="fill:rgb(25,81,153);fill-rule:nonzero;"/>
            <path d="M63.8,102.8C63.4,102.8 63,102.7 62.7,102.4C62.2,102 61.8,101.4 61.8,100.7L61.8,100.3C61.8,99.8 61.8,99.2 61.9,98.6L62.8,95.3C63.2,93.9 63.6,92.4 63.9,91C64.6,88.1 64.3,85.3 63.1,82.6C61.1,78.2 59,73.8 57,69.5L54.9,64.9C52.6,60 50.2,54.8 48.6,49.4C47.7,46.1 47.1,42.6 48.7,39.2C51.1,34.2 54.9,29.9 60.2,26.1C60.6,25.8 60.9,25.7 61.3,25.6C61.4,25.5 61.6,25.5 61.8,25.4C62.5,25.1 63.2,25.2 63.8,25.6C64.4,26 64.7,26.7 64.6,27.4C64.5,28 64.5,28.6 64.4,29.2C64.3,30.4 64.2,31.5 64,32.6C63.3,37.9 63.9,42.6 66,46.9C68.8,52.7 71.8,59 75.5,66.9C77.4,70.9 79.2,75.3 80.2,80.1C80.8,82.8 80.4,85.3 79.2,87.5C76.1,92.9 71.9,97.7 66.7,101.9C66.1,102.4 65.4,102.6 64.9,102.7C64.8,102.7 64.6,102.8 64.5,102.8L63.8,102.8ZM60.1,31.2C56.6,34.1 54,37.3 52.2,41C51.2,43.2 51.5,45.4 52.3,48.4C53.8,53.5 56.1,58.5 58.3,63.3L60.4,67.9C62.4,72.2 64.5,76.7 66.5,81.1C68.1,84.6 68.5,88.3 67.6,92C67.3,93.5 66.8,95 66.4,96.5L66.4,96.6C70.1,93.2 73.1,89.5 75.5,85.4C76.3,84.1 76.5,82.6 76.1,80.8C75.2,76.4 73.5,72.3 71.7,68.5C68.1,60.7 65.1,54.3 62.3,48.6C59.8,43.6 59,38.1 59.9,32C60,31.7 60.1,31.4 60.1,31.2Z" style="fill:rgb(92,157,213);fill-rule:nonzero;"/>
            <path d="M40.4,95.1C40.1,95.1 39.8,95 39.5,94.9L39.2,94.7C38.5,94.3 38,93.5 38.2,92.6C38.2,92.5 38.2,92.3 38.3,92.2C38.3,91.8 38.4,91.4 38.5,90.9C38.7,90.2 38.9,89.4 39.1,88.7C39.5,87.4 39.8,86.2 40,84.9C40.5,82.7 40.2,80.7 39.4,78.8C38,75.8 36.6,72.9 35.3,69.9C34.3,67.8 33.3,65.7 32.3,63.5C30.4,59.4 28.6,55.4 27.6,51C26.9,48.1 27.4,45.3 28.9,42.7C30.9,39.4 33.6,36.4 36.9,34C37.2,33.8 37.6,33.6 37.9,33.4C38,33.3 38.2,33.3 38.4,33.2C39,32.9 39.8,32.9 40.4,33.2C41,33.6 41.4,34.2 41.4,34.9L41.4,36.5C41,39.7 40.6,42.7 41.1,45.7C41.3,46.9 41.7,48.1 42.3,49.3C43.3,51.5 44.4,53.7 45.4,55.9C47,59.2 48.6,62.6 50.1,66C51.4,69 52.4,72.2 53.4,75.2L53.7,76C54.4,78.1 54.1,80.2 52.9,82.3C50.4,86.6 47.1,90.5 43,93.8C42.6,94.1 42.2,94.3 41.8,94.5C41.7,94.6 41.6,94.6 41.5,94.7C41.1,95 40.7,95.1 40.4,95.1ZM36.9,39.3C35,41 33.5,42.9 32.3,44.9C31.3,46.6 31,48.3 31.5,50.2C32.4,54.2 34.1,57.9 35.9,61.9L38.9,68.2C40.3,71.2 41.7,74.2 43,77.1C44.2,79.8 44.5,82.7 43.9,85.7C43.7,86.5 43.5,87.4 43.3,88.2C45.7,85.8 47.7,83.2 49.3,80.4C49.9,79.4 50,78.3 49.7,77.3L49.4,76.5C48.5,73.5 47.5,70.5 46.2,67.7C44.7,64.3 43.1,61 41.6,57.7C40.5,55.5 39.5,53.3 38.5,51.1C37.8,49.6 37.3,48.1 37,46.6C36.6,44.1 36.7,41.7 36.9,39.3Z" style="fill:rgb(25,81,153);fill-rule:nonzero;"/>
            <path d="M87.1,95.2C86.7,95.2 86.3,95.1 86,94.8C85.4,94.4 85.1,93.7 85.2,92.9C85.2,92.7 85.2,92.5 85.3,92.3C85.3,91.9 85.4,91.5 85.5,91C85.7,90.1 85.9,89.3 86.1,88.4C86.5,86.9 86.9,85.4 87.2,83.9C87.5,82.3 87.3,80.5 86.4,78.6C85.1,75.7 83.7,72.8 82.4,69.9C81.4,67.7 80.3,65.5 79.3,63.3C77.3,59.1 75.6,55.2 74.7,50.9C74.1,48 74.5,45.2 76.1,42.6C78.1,39.4 80.7,36.5 84,34.1C84.4,33.8 84.7,33.7 85,33.5C85.1,33.5 85.2,33.4 85.3,33.4C85.9,33.1 86.5,33.1 87.1,33.4L87.4,33.6C88.2,34 88.6,34.8 88.5,35.6L88.4,36.5L88.1,38.6C87.7,41.3 87.5,44 88.2,46.5C88.7,48.4 89.6,50.2 90.5,52.2L90.7,52.6C91.7,54.9 92.8,57.2 93.9,59.5C95.6,63.1 97.3,66.9 98.9,70.6C99.9,72.9 100.4,75.4 100.8,77.4C101.1,78.8 100.8,80.6 100.1,81.9C97.9,86.3 94.5,90.3 89.8,94.1C89.4,94.4 89,94.6 88.6,94.8C88.4,94.9 88.3,94.9 88.1,95.1C87.8,95.2 87.5,95.2 87.1,95.2ZM83.9,39.3C82.1,40.9 80.6,42.8 79.3,44.8C78.2,46.5 77.9,48.2 78.4,50.1C79.3,54 80.9,57.7 82.7,61.7C83.7,63.9 84.8,66.1 85.8,68.3C87.2,71.2 88.5,74.1 89.9,77C91.1,79.7 91.5,82.3 91,84.7C90.8,85.9 90.5,87.1 90.2,88.3C92.9,85.7 95,83 96.5,80C96.8,79.4 96.9,78.6 96.8,78C96.5,76.1 96,74 95.2,72C93.6,68.3 91.9,64.6 90.2,61C89.1,58.7 88.1,56.4 87,54.1L86.8,53.7C85.9,51.7 85,49.6 84.3,47.5C83.5,44.8 83.6,42 83.9,39.3Z" style="fill:rgb(25,81,153);fill-rule:nonzero;"/>
        </g>
        <g transform="matrix(2.86111,0,0,2.86111,-3.72222,-3.72222)">
            <path d="M21,6C28.161,10.692 30,14.989 30,19C30,21.009 28.999,22.901 28.999,22.901C28.999,22.901 32.396,26.452 30.337,30C30.337,30 29.248,27 27,27C24.834,27 23.602,30 19.242,30C9.534,30 5,22 5,22C14.374,28.044 19.589,23.077 19.589,23.077C12.722,17.92 7,9 7,9C14.299,15.155 18,18 18,18C16.118,16.458 10,8 10,8C14.224,12.238 23.396,18.923 23.396,18.923C25.587,13.418 21,6 21,6Z" style="fill:white;fill-rule:nonzero;"/>
        </g>
    </g>
</svg>
